ply
format ascii 1.0
element vertex 44
property double x
property double y
property double z
element edge 44
property int vertex1
property int vertex2
end_header
-15.8254 36.1643 2.52474
-15.7869 34.2098 2.40775
-15.8241 35.3038 2.57927
-15.8194 35.0512 2.56622
-15.8183 35.0097 2.5621
-15.8225 35.199 2.57638
-15.8218 35.1618 2.57445
-15.8206 35.1044 2.57059
-15.825 35.3782 2.57931
-15.8257 35.4875 2.57573
-15.8235 35.2619 2.57848
-15.823 35.2274 2.57746
-15.8254 35.4419 2.57768
-15.8252 35.4046 2.57882
-15.8253 36.2366 2.51861
-15.8255 36.1292 2.52789
-15.8261 35.7154 2.56167
-15.8259 35.5555 2.57215
-15.8261 35.7445 2.55956
-15.8257 36.0769 2.53252
-15.8253 36.2084 2.52076
-15.8261 35.8603 2.55073
-15.8259 35.948 2.54361
-15.8258 36.0092 2.53844
-15.826 35.8935 2.54809
-15.8249 36.258 2.515
-15.8246 35.346 2.5795
-15.8147 34.8922 2.54689
-15.8168 34.9573 2.5557
-15.7972 34.4071 2.46448
-15.802 34.5306 2.48768
-15.7903 34.2361 2.43059
-15.7925 34.2895 2.44165
-15.8133 34.8461 2.5404
-15.7842 34.2022 2.39566
-15.812 34.8067 2.53459
-15.8078 34.6877 2.51538
-15.81 34.7493 2.52563
-15.7992 34.4581 2.47421
-15.7947 34.3436 2.45221
-15.8033 34.5652 2.49396
-15.8261 35.8046 2.55507
-15.826 35.6408 2.56678
-15.8054 34.6214 2.5039
25 14
7 6
3 4
13 12
26 8
23 22
38 30
4 28
10 2
7 3
39 32
8 13
36 37
9 12
17 9
17 42
5 11
31 32
10 11
18 41
16 42
14 20
0 20
0 15
16 18
41 21
22 24
19 23
27 28
27 33
26 2
29 38
40 30
37 35
36 43
29 39
1 34
35 33
25 20
6 5
43 40
31 1
15 19
21 24
